<svg width="501" height="501" viewBox="0 0 501 501" fill="none" xmlns="http://www.w3.org/2000/svg">
<path d="M76 127C76 102.147 96.1472 82 121 82H381C405.853 82 426 102.147 426 127V387C426 411.853 405.853 432 381 432H121C96.1472 432 76 411.853 76 387V127Z" fill="#4081ED"/>
<mask id="mask0" mask-type="alpha" maskUnits="userSpaceOnUse" x="76" y="82" width="350" height="350">
<path d="M76 127C76 102.147 96.1472 82 121 82H381C405.853 82 426 102.147 426 127V387C426 411.853 405.853 432 381 432H121C96.1472 432 76 411.853 76 387V127Z" fill="#4081ED"/>
</mask>
<g mask="url(#mask0)">
<path d="M47.0799 311.144C33.3095 299.36 32.6027 279.487 45.5012 266.755V266.755C58.3997 254.023 80.0191 253.254 93.7895 265.038L201.861 357.515L155.152 403.621L47.0799 311.144Z" fill="#32A351"/>
<path d="M106.786 362.234L289.836 181.549C302.347 169.201 323.315 168.455 336.671 179.884V179.884C350.027 191.312 350.712 210.587 338.202 222.936L155.152 403.621L106.786 362.234Z" fill="#32A351"/>
<path d="M49.3624 396.778C35.592 384.995 34.8852 365.121 47.7837 352.39V352.39C60.6822 339.658 82.3016 338.889 96.072 350.672L204.144 443.15L157.434 489.256L49.3624 396.778Z" fill="#E34133"/>
<path d="M109.069 447.869L292.119 267.184C304.629 254.836 325.597 254.09 338.953 265.519V265.519C352.309 276.947 352.995 296.222 340.484 308.571L157.434 489.256L109.069 447.869Z" fill="#E34133"/>
<path d="M44.7974 225.509C31.0271 213.725 30.3203 193.852 43.2188 181.12V181.12C56.1173 168.388 77.7367 167.619 91.507 179.403L199.579 271.88L152.869 317.986L44.7974 225.509Z" fill="#F3B604"/>
<path d="M104.504 276.6L287.554 95.9146C300.064 83.5661 321.033 82.8204 334.388 94.249V94.249C347.744 105.678 348.43 124.953 335.919 137.301L152.869 317.986L104.504 276.6Z" fill="#F3B604"/>
<ellipse cx="311.614" cy="116.264" rx="33.7391" ry="30.8477" transform="rotate(-12 311.614 116.264)" fill="white" fill-opacity="0.29"/>
<ellipse cx="316.179" cy="287.534" rx="33.7391" ry="30.8477" transform="rotate(-12 316.179 287.534)" fill="white" fill-opacity="0.29"/>
<ellipse cx="314.143" cy="203.06" rx="33.7391" ry="30.8477" transform="rotate(-12 314.143 203.06)" fill="white" fill-opacity="0.29"/>
</g>
</svg>
