<?xml version="1.0" encoding="utf-8"?>
<!DOCTYPE svg PUBLIC "-//W3C//DTD SVG 1.1//EN" "http://www.w3.org/Graphics/SVG/1.1/DTD/svg11.dtd">
<svg version="1.1" xmlns="http://www.w3.org/2000/svg" xmlns:xlink="http://www.w3.org/1999/xlink" x="0px" y="0px" viewBox="0 0 1000 1000" enable-background="new 0 0 1000 1000" xml:space="preserve">
<g><g transform="translate(0.000000,511.000000) scale(0.100000,-0.100000)"><path d="M4638.9,5008.2c-601.7-69.2-1016.7-166-1415.6-322.8C1768.5,4109,682.6,2898.6,272.3,1400.1C-188.8-287.5,290.7-2095,1531.1-3349.2c1334.9-1351,3391.4-1805.2,5166.6-1143.5l249,92.2l-249,129.1c-786.2,408-1399.4,963.7-1879,1696.8C3887.3-1152.1,3760.5,637,4482.1,2209.3c108.4,235.2,338.9,613.3,525.6,864.6c433.4,578.7,1019,1072.1,1683,1415.6l255.9,133.7l-214.4,83c-511.8,193.7-1023.7,290.5-1609.2,304.3C4901.7,5015.1,4682.7,5012.8,4638.9,5008.2z"/><path d="M8433.7,3970.7c-9.2-23-94.5-251.3-191.3-504.9c-94.5-253.6-184.4-472.6-198.3-488.8c-16.1-13.8-239.8-106-500.3-202.9c-258.2-96.8-484.2-184.4-500.3-191.3c-16.1-9.2,196-101.5,491.1-212.1l521.1-196l198.3-525.7l196-528l198.3,528l198.3,525.7L9372,2373l528,198.3l-528,196l-525.6,198.3l-189.1,502.6c-106,279-193.7,514.1-198.3,525.6C8454.5,4007.6,8442.9,3996.1,8433.7,3970.7z"/><path d="M7695.9-123.8c-138.3-371.2-262.8-687-276.7-700.9c-13.8-13.8-329.7-138.3-698.6-276.7c-371.2-138.3-675.5-255.9-675.5-262.8s304.3-124.5,675.5-262.8c368.9-138.3,684.7-260.5,696.3-269.7c13.8-9.2,138.3-322.8,276.7-698.6c138.3-375.8,258.2-682.4,265.1-682.4s124.5,304.3,262.8,675.5c138.3,368.9,262.8,684.7,276.7,698.6c13.8,16.1,329.7,140.6,698.6,276.7c371.2,138.3,675.5,255.9,675.5,262.8s-306.6,126.8-682.4,265.1c-375.8,138.3-689.3,262.8-698.6,276.7c-9.2,11.5-131.4,327.4-269.7,698.6c-138.3,368.9-255.9,673.2-262.8,673.2S7834.3,245,7695.9-123.8z"/></g></g>
</svg>